<?xml version="1.0" standalone="no"?>
<!DOCTYPE svg PUBLIC "-//W3C//DTD SVG 20010904//EN"
 "http://www.w3.org/TR/2001/REC-SVG-20010904/DTD/svg10.dtd">
<svg version="1.0" xmlns="http://www.w3.org/2000/svg"
 width="549.000000pt" height="550.000000pt" viewBox="0 0 549.000000 550.000000"
 preserveAspectRatio="xMidYMid meet">

<g transform="translate(0.000000,550.000000) scale(0.100000,-0.100000)"
fill="#000000" stroke="none">
<path d="M2420 5046 c-246 -53 -364 -314 -254 -564 22 -51 116 -148 897 -929
l872 -873 -105 -107 c-58 -60 -447 -451 -865 -871 -509 -510 -768 -777 -783
-806 -52 -99 -65 -213 -37 -321 31 -120 116 -207 234 -241 31 -8 71 -20 88
-25 18 -6 38 -7 44 -4 6 4 39 13 75 21 129 26 116 15 939 834 424 421 888 882
1031 1025 286 284 305 309 326 438 13 82 -5 168 -53 256 -45 80 -2050 2084
-2125 2124 -53 27 -161 57 -204 56 -14 0 -50 -6 -80 -13z"/>
<path d="M1915 3334 c-11 -2 -45 -9 -75 -15 -177 -35 -351 -172 -444 -349 -55
-105 -86 -258 -68 -333 6 -23 16 -69 22 -102 38 -190 180 -365 365 -450 98
-45 165 -60 275 -59 378 3 667 312 648 693 -9 167 -69 301 -193 426 -79 79
-188 142 -293 169 -64 17 -201 29 -237 20z"/>
</g>
</svg>
